<svg width="512" height="512" viewBox="0 0 512 512" xmlns="http://www.w3.org/2000/svg">
  <defs>
    <linearGradient id="bg" x1="0" y1="0" x2="0" y2="1">
      <stop offset="0" stop-color="#1a1817"/>
      <stop offset="1" stop-color="#0a0908"/>
    </linearGradient>
    <linearGradient id="gold" x1="0" y1="0" x2="1" y2="1">
      <stop offset="0" stop-color="#F2D780"/>
      <stop offset="0.5" stop-color="#C9A961"/>
      <stop offset="1" stop-color="#8A7340"/>
    </linearGradient>
    <radialGradient id="glow" cx="0.5" cy="0.5" r="0.5">
      <stop offset="0" stop-color="#C9A961" stop-opacity="0.18"/>
      <stop offset="1" stop-color="#C9A961" stop-opacity="0"/>
    </radialGradient>
  </defs>
  <rect width="512" height="512" rx="96" fill="url(#bg)"/>
  <rect x="20" y="20" width="472" height="472" rx="80" fill="none" stroke="url(#gold)" stroke-width="2" opacity="0.35"/>
  <rect width="512" height="512" fill="url(#glow)"/>
  <g transform="translate(256 256) scale(14) translate(-12 -12)"
     fill="none" stroke="url(#gold)" stroke-width="2.2" stroke-linecap="round" stroke-linejoin="round">
    <polyline points="14.5 17.5 3 6 3 3 6 3 17.5 14.5"/>
    <line x1="13" y1="19" x2="19" y2="13"/>
    <line x1="16" y1="16" x2="20" y2="20"/>
    <line x1="19" y1="21" x2="21" y2="19"/>
    <polyline points="14.5 6.5 18 3 21 3 21 6 17.5 9.5"/>
    <line x1="5" y1="14" x2="9" y2="18"/>
    <line x1="7" y1="17" x2="4" y2="20"/>
    <line x1="3" y1="19" x2="5" y2="21"/>
  </g>
</svg>
